<!--?xml version="1.0" encoding="utf-8"?-->
<!-- Generator: Adobe Illustrator 18.1.1, SVG Export Plug-In . SVG Version: 6.00 Build 0)  -->

<svg version="1.1" id="_x32_" xmlns="http://www.w3.org/2000/svg" xmlns:xlink="http://www.w3.org/1999/xlink" x="0px" y="0px" viewBox="0 0 512 512" style="width: 256px; height: 256px; opacity: 1;" xml:space="preserve">
<style type="text/css">
	.st0{fill:#4B4B4B;}
</style>
<g>
	<path class="st0" d="M371.222,403.596c0.178,1.167,0.44,2.3,0.752,3.424c0.33,1.438,0.769,2.874,0.947,4.303l0.38-0.38
		c2.959,6.677,8.377,12.282,15.689,15.241c14.92,6.027,31.894-1.184,37.921-16.095c5.909-14.615-0.947-31.167-15.274-37.489
		l0.414-0.414c-1.598-0.194-3.195-0.676-4.784-1.056c-1.074-0.28-2.139-0.55-3.221-0.702
		c-40.744-12.739-80.187-82.106-80.187-115.157c0-32.866,38.986-101.59,79.477-114.896c2.155-0.27,4.268-0.744,6.331-1.496
		c0.795-0.144,1.589-0.431,2.384-0.524l-0.338-0.33c3.094-1.412,6.019-3.297,8.554-5.833c11.37-11.369,11.37-29.814,0-41.192
		c-11.377-11.369-29.814-11.369-41.192,0c-2.535,2.536-4.421,5.461-5.824,8.547l-0.33-0.33c-0.093,0.786-0.38,1.563-0.516,2.35
		c-0.761,2.071-1.233,4.201-1.504,6.365c-13.322,40.508-82.037,79.476-114.895,79.476c-33.144,0-102.74-39.628-115.233-80.49
		c-0.178-1.15-0.431-2.265-0.744-3.381c-0.321-1.437-0.769-2.882-0.946-4.319l-0.381,0.38c-2.958-6.678-8.377-12.274-15.689-15.233
		c-14.92-6.026-31.894,1.176-37.929,16.086c-5.901,14.624,0.955,31.167,15.274,37.49l-0.414,0.414
		c1.606,0.194,3.212,0.676,4.809,1.056c1.066,0.278,2.122,0.55,3.196,0.702c40.752,12.73,80.194,82.097,80.194,115.157
		c0,33.153-39.679,102.799-80.558,115.233c-1.1,0.178-2.173,0.422-3.238,0.71c-1.471,0.339-2.933,0.795-4.404,0.972l0.389,0.388
		c-6.687,2.951-12.291,8.377-15.25,15.689c-6.018,14.92,1.184,31.885,16.103,37.921c14.616,5.908,31.15-0.955,37.482-15.274
		l0.414,0.414c0.194-1.598,0.676-3.195,1.056-4.793c0.279-1.082,0.55-2.148,0.711-3.23c12.747-40.744,82.096-80.169,115.148-80.169
		C289.133,323.131,358.711,362.751,371.222,403.596z" style="fill: rgb(75, 75, 75);"></path>
	<path class="st0" d="M299.015,158.109c5.866-3.12,11.961-6.77,18.098-10.997c2.13-1.463,4.184-2.934,6.162-4.438
		c-0.008-0.026-0.008-0.026-0.016-0.042c-6.036-14.869-7.549-31.192-4.514-46.797c1.497-7.793,4.142-15.402,7.904-22.57
		c3.77-7.185,8.665-13.914,14.717-19.966c8.082-8.072,17.363-14.083,27.27-18.115c14.877-6.027,31.2-7.54,46.788-4.523
		c7.802,1.505,15.418,4.143,22.586,7.921c7.169,3.762,13.906,8.665,19.958,14.708c8.072,8.081,14.082,17.354,18.115,27.278
		c6.027,14.868,7.54,31.192,4.522,46.796c-1.504,7.785-4.151,15.402-7.912,22.57c-3.779,7.176-8.665,13.897-14.726,19.958
		c-8.082,8.081-17.354,14.091-27.262,18.115c-14.869,6.035-31.192,7.548-46.797,4.531c-5.206-1.015-10.338-2.528-15.308-4.548
		c-1.497,1.978-2.976,4.04-4.438,6.171c-4.227,6.137-7.879,12.232-11.006,18.098c1.59,0.753,3.195,1.438,4.81,2.088
		c20.025,8.124,41.902,10.144,62.866,6.094c20.947-4.057,41.031-14.243,57.228-30.456c10.802-10.786,18.944-23.314,24.354-36.678
		c8.123-20.042,10.143-41.92,6.086-62.866c-4.041-20.964-14.235-41.04-30.44-57.245c-10.786-10.786-23.331-18.935-36.687-24.354
		C421.34,0.728,399.464-1.3,378.517,2.766c-20.955,4.04-41.04,14.235-57.245,30.44c-10.795,10.795-18.935,23.331-24.354,36.678
		c-8.115,20.042-10.135,41.919-6.086,62.874C292.506,141.431,295.245,149.968,299.015,158.109z" style="fill: rgb(75, 75, 75);"></path>
	<path class="st0" d="M32.522,191.017c10.203,10.229,22.629,18.605,36.839,24.345c21.217,8.58,43.66,10.119,64.506,5.672
		c8.673-1.852,17.067-4.708,25.038-8.538c-4.337-8.2-9.527-16.501-15.317-24.235c-5.021,2.164-10.271,3.837-15.622,4.987
		c-15.545,3.288-32.096,2.173-47.963-4.226c-5.309-2.156-10.254-4.785-14.836-7.82c-4.573-3.034-8.757-6.484-12.562-10.279
		c-11.336-11.335-19.087-25.764-22.384-41.276c-3.297-15.546-2.181-32.105,4.227-47.954c4.294-10.635,10.506-19.806,18.098-27.406
		c11.327-11.335,25.748-19.095,41.276-22.392c15.538-3.28,32.089-2.164,47.947,4.235c5.308,2.156,10.27,4.776,14.843,7.81
		c4.574,3.035,8.758,6.484,12.553,10.279c11.345,11.336,19.096,25.765,22.401,41.286c3.187,15.072,2.232,31.098-3.668,46.534
		c7.718,5.883,16.044,11.158,24.294,15.579c0.516-1.158,1.015-2.333,1.488-3.516c8.58-21.218,10.119-43.661,5.672-64.514
		c-4.438-20.846-14.818-40.186-30.085-55.462c-10.228-10.219-22.646-18.614-36.847-24.345c-10.609-4.286-21.53-6.813-32.401-7.726
		C109.158,1.16,98.329,1.886,87.906,4.11C67.053,8.54,47.72,18.928,32.454,34.194C22.217,44.414,13.84,56.832,8.092,71.033
		C-0.48,92.26-2.018,114.702,2.42,135.548C6.858,156.41,17.247,175.751,32.522,191.017z" style="fill: rgb(75, 75, 75);"></path>
	<path class="st0" d="M213.207,352.311c-5.934,3.145-12.096,6.847-18.318,11.125c-2.029,1.403-4.007,2.815-5.909,4.234
		c2.173,5.03,3.855,10.271,4.996,15.648c3.297,15.528,2.164,32.079-4.226,47.954c-4.294,10.617-10.508,19.806-18.099,27.388
		c-11.335,11.335-25.756,19.095-41.276,22.4c-15.537,3.281-32.088,2.164-47.963-4.234c-10.617-4.294-19.806-10.508-27.397-18.098
		c-11.327-11.336-19.086-25.757-22.384-41.286c-3.297-15.536-2.172-32.088,4.236-47.954c4.294-10.609,10.498-19.797,18.089-27.389
		c11.327-11.344,25.757-19.086,41.285-22.392c15.072-3.195,31.1-2.232,46.535,3.669c1.716-2.232,3.398-4.574,5.064-6.992
		c4.023-5.857,7.548-11.673,10.574-17.278c-1.183-0.532-2.366-1.04-3.575-1.521c-21.226-8.572-43.661-10.119-64.515-5.672
		c-20.853,4.429-40.186,14.818-55.461,30.092c-10.22,10.212-18.614,22.638-24.354,36.839c-8.58,21.218-10.118,43.661-5.68,64.514
		c4.446,20.862,14.827,40.195,30.093,55.462c10.22,10.219,22.638,18.613,36.848,24.353c21.218,8.58,43.66,10.11,64.514,5.672
		c20.863-4.438,40.195-14.818,55.461-30.085c10.229-10.228,18.622-22.646,24.345-36.847c8.588-21.226,10.127-43.669,5.672-64.514
		C219.919,368.719,217.045,360.283,213.207,352.311z" style="fill: rgb(75, 75, 75);"></path>
	<path class="st0" d="M509.574,374.991c-4.429-20.862-14.818-40.186-30.085-55.469c-10.219-10.228-22.637-18.614-36.847-24.345
		c-21.226-8.58-43.669-10.118-64.506-5.672c-8.681,1.851-17.066,4.726-25.038,8.546c4.336,8.191,9.518,16.491,15.308,24.226
		c5.03-2.164,10.27-3.838,15.63-4.979c15.546-3.305,32.096-2.181,47.963,4.227c10.625,4.294,19.806,10.508,27.396,18.09
		c11.336,11.336,19.088,25.757,22.384,41.277c3.305,15.537,2.181,32.105-4.218,47.963c-4.303,10.625-10.516,19.806-18.099,27.396
		c-11.335,11.336-25.765,19.096-41.285,22.393c-15.537,3.288-32.096,2.164-47.954-4.227c-10.626-4.294-19.806-10.508-27.405-18.106
		c-11.327-11.327-19.079-25.748-22.384-41.277c-3.195-15.072-2.232-31.099,3.66-46.526c-7.71-5.884-16.036-11.158-24.286-15.588
		c-0.516,1.158-1.014,2.334-1.496,3.508c-8.572,21.234-10.11,43.669-5.672,64.523c4.438,20.846,14.818,40.186,30.092,55.461
		c10.22,10.22,22.647,18.614,36.839,24.345c21.226,8.588,43.669,10.128,64.523,5.681c20.846-4.446,40.186-14.827,55.461-30.094
		c10.22-10.219,18.614-22.637,24.345-36.847C512.482,418.288,514.021,395.836,509.574,374.991z" style="fill: rgb(75, 75, 75);"></path>
</g>
</svg>
