<!--?xml version="1.0" encoding="utf-8"?-->
<!-- Generator: Adobe Illustrator 18.1.1, SVG Export Plug-In . SVG Version: 6.00 Build 0)  -->

<svg version="1.1" id="_x32_" xmlns="http://www.w3.org/2000/svg" xmlns:xlink="http://www.w3.org/1999/xlink" x="0px" y="0px" viewBox="0 0 512 512" style="width: 256px; height: 256px; opacity: 1;" xml:space="preserve">
<style type="text/css">
	.st0{fill:#4B4B4B;}
</style>
<g>
	<path class="st0" d="M439.727,143.16c26.188,0,47.42-21.231,47.42-47.402c0-26.188-21.232-47.428-47.42-47.428
		c-26.195,0-47.419,21.24-47.419,47.428C392.308,121.928,413.532,143.16,439.727,143.16z" style="fill: rgb(75, 75, 75);"></path>
	<path class="st0" d="M497.9,420.012l-33.303-17.763V171.062h-49.74v231.186l-33.302,17.763
		c-8.684,4.625-14.093,13.664-14.093,23.496v20.164H512v-20.164C512,433.676,506.575,424.636,497.9,420.012z" style="fill: rgb(75, 75, 75);"></path>
	<path class="st0" d="M72.265,143.16c26.188,0,47.42-21.231,47.42-47.402c0-26.188-21.232-47.428-47.42-47.428
		c-26.187,0-47.419,21.24-47.419,47.428C24.846,121.928,46.078,143.16,72.265,143.16z" style="fill: rgb(75, 75, 75);"></path>
	<path class="st0" d="M130.438,420.012l-33.303-17.763V171.062H47.403V402.24l-33.31,17.771C5.417,424.636,0,433.676,0,443.507
		v20.164h144.546v-20.164C144.546,433.676,139.114,424.636,130.438,420.012z" style="fill: rgb(75, 75, 75);"></path>
	<path class="st0" d="M388.791,208.132c-33.868,29.754-80.746,48.43-132.791,48.414c-52.044,0.016-98.922-18.66-132.782-48.414
		v42.083c37.127,25.024,83.107,39.738,132.782,39.738s95.664-14.714,132.791-39.738V208.132z" style="fill: rgb(75, 75, 75);"></path>
</g>
</svg>
